# xmcd
#
# Track frame offsets:
# 150
# 17930
# 37920
# 55835
# 78891
# 95709
# 111220
# 131263
# 149966
# 171151
# 186194
# 203124
# 226429
# 241129
# 264017
# 279497
# 303901
#
# Disc length: 4244 seconds
#
#
# Revision: 0
# Processed by: cddbd v1.5.1PL0 Copyright (c) Steve Scherf et al.
# Submitted via: FreeRIP 2.942 
#
DISCID=e6109211
DTITLE=Bacilos - Caraluna
DYEAR=1900
DGENRE=Rock
TTITLE0=Mi Primer Millon
TTITLE1=Caraluna
TTITLE2=Solo Un Segundo
TTITLE3=Viejo
TTITLE4=Odio El Silencio
TTITLE5=Nada Especial
TTITLE6=Barcelona
TTITLE7=El Edificio
TTITLE8=Nada
TTITLE9=Elena
TTITLE10=Buena
TTITLE11=Tabaco Y Chanel
TTITLE12=Besala Ya
TTITLE13=Cuestion De Madera
TTITLE14=Lo Mismo Que Yo
TTITLE15=Cronica
TTITLE16=Mas Alla
EXTD=
EXTT0=
EXTT1=
EXTT2=
EXTT3=
EXTT4=
EXTT5=
EXTT6=
EXTT7=
EXTT8=
EXTT9=
EXTT10=
EXTT11=
EXTT12=
EXTT13=
EXTT14=
EXTT15=
EXTT16=
PLAYORDER=
